<?xml version="1.0" standalone="no"?>
<!DOCTYPE svg PUBLIC "-//W3C//DTD SVG 20010904//EN"
 "http://www.w3.org/TR/2001/REC-SVG-20010904/DTD/svg10.dtd">
<svg version="1.0" xmlns="http://www.w3.org/2000/svg"
 width="300.000000pt" height="253.000000pt" viewBox="0 0 300.000000 253.000000"
 preserveAspectRatio="xMidYMid meet">
<metadata>
Created by potrace 1.10, written by Peter Selinger 2001-2011
</metadata>
<g transform="translate(0.000000,253.000000) scale(0.100000,-0.100000)"
fill="#000000" stroke="none">
<path d="M1533 1942 c-50 -3 -56 -6 -118 -68 l-65 -65 0 53 c0 30 -5 59 -12
66 -8 8 -50 12 -125 12 -97 0 -114 -2 -122 -18 -5 -10 -11 -83 -13 -162 -2
-123 0 -149 14 -169 15 -21 15 -26 2 -38 -10 -10 -14 -42 -15 -111 -1 -53 -3
-143 -5 -199 -3 -115 4 -129 70 -137 27 -3 42 0 55 13 15 15 19 16 27 4 5 -8
25 -17 44 -19 49 -7 80 23 80 76 0 22 4 40 8 40 4 0 28 -21 52 -46 25 -25 54
-51 65 -57 26 -15 305 -19 323 -5 6 6 12 18 12 27 0 9 -83 99 -184 200 l-184
183 129 129 129 128 0 70 c0 67 -1 71 -25 77 -14 4 -29 4 -32 1 -3 -4 -17 -1
-32 6 -14 7 -50 11 -78 9z m-213 -79 c0 -57 1 -58 61 -119 l62 -62 118 121
119 122 0 -65 0 -65 -123 -123 -123 -123 -102 103 c-85 86 -102 108 -101 133
0 26 2 27 9 10 8 -18 9 -17 9 8 1 24 -3 27 -29 27 l-30 0 0 -76 c0 -74 -1 -78
-37 -118 -20 -22 -40 -42 -45 -44 -4 -2 -8 71 -8 162 l0 166 110 0 110 0 0
-57z m212 -33 c-91 -90 -109 -104 -98 -74 3 8 2 13 -3 10 -8 -5 -51 26 -51 37
0 3 26 30 58 61 57 56 57 56 121 56 l63 0 -90 -90z m-16 -420 l280 -280 -154
0 -155 0 -138 137 c-77 75 -139 141 -139 147 0 5 10 1 22 -10 14 -13 12 -7 -8
19 l-29 37 -3 -165 -2 -165 -45 0 -45 0 0 198 0 198 30 29 31 29 182 -181
c172 -171 184 -181 225 -185 47 -4 51 0 22 25 -24 20 -34 22 -24 5 5 -8 0 -7
-11 2 -43 34 -68 61 -62 66 3 3 18 -8 33 -25 15 -17 30 -29 32 -26 3 3 -11 21
-31 40 -22 21 -37 30 -40 22 -2 -7 -19 4 -40 27 -20 22 -34 43 -31 47 3 5 -10
23 -28 41 -53 52 -77 66 -33 20 21 -23 35 -42 30 -42 -13 0 -105 92 -105 104
0 6 5 5 12 -2 7 -7 16 -12 20 -12 5 0 -12 20 -36 45 -25 25 -49 45 -53 45 -4
0 8 -16 27 -35 19 -19 30 -35 24 -35 -5 0 -27 18 -48 40 l-40 40 22 23 c12 13
22 31 22 40 0 9 1 17 3 17 1 0 129 -126 283 -280z m-106 0 c0 -5 -4 -10 -10
-10 -5 0 -10 5 -10 10 0 6 5 10 10 10 6 0 10 -4 10 -10z m-90 -222 l5 -58 -47
0 -48 0 -1 93 c0 50 -2 100 -4 110 -2 9 18 -6 43 -34 42 -47 48 -58 52 -111z"/>
<path d="M1345 1660 c83 -83 116 -113 84 -74 -23 28 -163 164 -168 164 -3 0
35 -40 84 -90z"/>
<path d="M1449 1366 c29 -31 35 -33 22 -7 -6 10 -18 22 -28 25 -13 5 -11 1 6
-18z"/>
<path d="M1052 979 c-18 -29 -15 -170 4 -197 16 -23 60 -30 66 -11 2 7 12 7
31 -2 20 -9 33 -9 52 -1 30 14 32 38 5 72 -25 31 -25 62 -2 79 35 25 10 81
-35 81 -16 0 -22 -4 -17 -11 5 -9 -1 -10 -22 -5 -61 14 -71 14 -82 -5z m158
-5 c0 -3 -13 -25 -30 -49 l-30 -44 34 -44 c19 -25 32 -47 30 -50 -12 -12 -53
8 -69 35 -15 27 -19 29 -27 14 -5 -10 -7 -24 -4 -32 4 -9 -1 -14 -14 -14 -11
0 -22 -1 -25 -2 -3 -2 -7 39 -8 90 l-2 92 25 0 c24 0 26 -3 22 -35 -3 -21 0
-35 7 -35 6 0 11 6 11 13 1 15 31 52 50 60 20 8 30 8 30 1z"/>
<path d="M1280 988 c-24 -13 -25 -18 -25 -103 0 -82 2 -92 24 -113 22 -20 26
-21 46 -8 14 9 27 11 36 5 38 -24 87 8 68 43 -6 12 -6 25 1 37 18 34 12 88
-13 116 -27 32 -97 44 -137 23z m120 -38 c26 -26 25 -65 -1 -91 l-21 -21 23
-24 c12 -13 20 -26 17 -29 -10 -10 -57 14 -68 35 -15 28 -32 25 -24 -5 5 -22
3 -25 -19 -25 -25 0 -26 2 -29 80 -2 44 -1 85 0 90 2 6 26 10 53 10 36 0 54
-5 69 -20z"/>
<path d="M1330 905 c0 -29 3 -36 18 -33 11 2 17 13 17 33 0 20 -6 31 -17 33
-15 3 -18 -4 -18 -33z"/>
<path d="M1478 986 c-22 -16 -24 -66 -3 -66 8 0 15 -6 16 -12 6 -117 18 -148
60 -148 28 0 38 23 40 88 1 34 6 62 10 62 5 0 16 11 24 24 14 20 14 28 3 45
-11 18 -23 21 -73 21 -34 0 -68 -6 -77 -14z m138 -35 c-4 -6 -17 -11 -29 -11
-21 0 -22 -3 -19 -75 l4 -75 -26 0 c-26 0 -26 1 -26 76 0 71 -1 76 -20 71 -15
-4 -20 0 -20 13 0 16 9 19 63 22 64 3 84 -3 73 -21z"/>
<path d="M1675 984 c-18 -13 -20 -25 -17 -100 2 -104 12 -127 52 -120 16 2 33
7 38 10 5 3 23 0 40 -6 24 -9 34 -9 46 1 22 18 20 32 -9 75 l-25 37 25 37 c31
45 31 48 1 67 -18 12 -29 13 -51 5 -20 -7 -31 -8 -39 0 -14 14 -37 12 -61 -6z
m155 -10 c0 -3 -14 -25 -31 -50 l-30 -45 30 -41 c38 -51 38 -57 6 -50 -16 3
-32 17 -41 35 -12 23 -18 27 -25 16 -5 -8 -9 -24 -9 -35 0 -17 -5 -20 -22 -17
-22 4 -23 9 -23 94 -1 86 0 89 21 89 19 0 23 -6 26 -37 l3 -38 18 33 c10 18
28 37 40 42 27 11 37 12 37 4z"/>
</g>
</svg>
